<?xml version="1.0" encoding="UTF-8"?>
<svg width="102px" height="39px" viewBox="0 0 102 39" version="1.1" xmlns="http://www.w3.org/2000/svg" xmlns:xlink="http://www.w3.org/1999/xlink">
    <!-- Generator: Sketch 59.1 (86144) - https://sketch.com -->
    <title>logo</title>
    <desc>Created with Sketch.</desc>
    <g id="Symbols" stroke="none" stroke-width="1" fill="none" fill-rule="evenodd">
        <g id="Logo-/-White" fill="#000D34" fill-rule="nonzero">
            <g id="logo">
                <path d="M70.06,15.5953543 C70.2549077,16.8496808 70.3618354,18.116105 70.38,19.3853543 C70.4584679,24.5970042 68.4047594,29.6145649 64.6946855,33.2755487 C60.9846116,36.9365326 55.9401424,38.9232297 50.73,38.7753543 C38.82,38.7753543 30.49,30.0153543 30.49,19.3853543 C30.49,8.54535432 39.3,0.00535431735 50.57,0.00535431735 C57.6513206,-0.160025615 64.2687432,3.51589527 67.87,9.61535432 L59.76,12.3953543 C57.6631191,9.34664979 54.1582582,7.57537598 50.46,7.69535432 C43.68,7.69535432 39.09,12.3953543 39.09,19.4453543 C39.09,26.2753543 43.63,31.2453543 50.46,31.2453543 C56.07,31.2453543 60.08,28.5753543 61.46,23.3453543 L50.25,23.3453543 L50.25,15.5953543 L70.06,15.5953543 Z" id="Path"></path>
                <polygon id="Path" points="101.09 8.76535432 90.41 8.76535432 90.41 38.1353543 82.02 38.1353543 82.02 8.76535432 71.34 8.76535432 71.34 0.755354317 101.09 0.755354317"></polygon>
                <polygon id="Path" points="29.74 8.76535432 19.06 8.76535432 19.06 38.1353543 10.68 38.1353543 10.68 8.76535432 5.32907052e-15 8.76535432 5.32907052e-15 0.755354317 29.74 0.755354317"></polygon>
            </g>
        </g>
    </g>
</svg>